<?xml version="1.0" encoding="UTF-8"?>
<svg version="1.1" xmlns="http://www.w3.org/2000/svg" width="2336" height="2329">
<path d="M0,0 L24,0 L24,8 L40,8 L40,16 L56,16 L56,24 L72,24 L72,32 L96,32 L96,40 L120,40 L120,48 L144,48 L144,56 L184,56 L184,64 L352,64 L352,56 L384,56 L384,48 L408,48 L408,40 L432,40 L432,32 L456,32 L456,24 L472,24 L472,16 L480,16 L480,8 L496,8 L496,0 L520,0 L520,8 L552,8 L552,16 L576,16 L576,24 L600,24 L600,32 L632,32 L632,40 L656,40 L656,48 L688,48 L688,56 L712,56 L712,64 L744,64 L744,72 L776,72 L776,80 L800,80 L800,88 L832,88 L832,96 L864,96 L864,104 L888,104 L888,112 L904,112 L904,120 L912,120 L912,128 L928,128 L928,136 L936,136 L936,144 L944,144 L944,152 L952,152 L952,160 L960,160 L960,168 L968,168 L968,176 L976,176 L976,184 L984,184 L984,192 L992,192 L992,200 L1008,200 L1008,208 L1016,208 L1016,216 L1024,216 L1024,224 L1032,224 L1032,232 L1040,232 L1040,240 L1048,240 L1048,248 L1056,248 L1056,256 L1064,256 L1064,264 L1072,264 L1072,272 L1080,272 L1080,280 L1088,280 L1088,288 L1104,288 L1104,296 L1112,296 L1112,304 L1120,304 L1120,312 L1128,312 L1128,320 L1136,320 L1136,328 L1144,328 L1144,336 L1152,336 L1152,344 L1160,344 L1160,352 L1176,352 L1176,360 L1184,360 L1184,368 L1192,368 L1192,376 L1200,376 L1200,384 L1208,384 L1208,392 L1216,392 L1216,400 L1224,400 L1224,408 L1232,408 L1232,416 L1248,416 L1248,424 L1256,424 L1256,432 L1264,432 L1264,440 L1272,440 L1272,448 L1280,448 L1280,456 L1288,456 L1288,464 L1296,464 L1296,472 L1304,472 L1304,480 L1312,480 L1312,488 L1320,488 L1320,496 L1328,496 L1328,504 L1336,504 L1336,512 L1352,512 L1352,520 L1360,520 L1360,528 L1368,528 L1368,536 L1376,536 L1376,568 L1368,568 L1368,576 L1360,576 L1360,592 L1352,592 L1352,600 L1344,600 L1344,616 L1336,616 L1336,624 L1328,624 L1328,640 L1320,640 L1320,648 L1312,648 L1312,664 L1304,664 L1304,672 L1296,672 L1296,688 L1288,688 L1288,696 L1280,696 L1280,712 L1272,712 L1272,720 L1264,720 L1264,736 L1256,736 L1256,744 L1248,744 L1248,760 L1240,760 L1240,768 L1232,768 L1232,784 L1224,784 L1224,792 L1216,792 L1216,808 L1208,808 L1208,816 L1200,816 L1200,832 L1192,832 L1192,840 L1184,840 L1184,856 L1176,856 L1176,864 L1168,864 L1168,880 L1160,880 L1160,888 L1152,888 L1152,896 L1144,896 L1144,904 L1128,904 L1128,896 L1104,896 L1104,888 L1088,888 L1088,880 L1064,880 L1064,872 L1048,872 L1048,864 L1032,864 L1032,856 L1008,856 L1008,848 L992,848 L992,840 L968,840 L968,2208 L-448,2208 L-448,840 L-472,840 L-472,848 L-488,848 L-488,856 L-512,856 L-512,864 L-528,864 L-528,872 L-552,872 L-552,880 L-568,880 L-568,888 L-584,888 L-584,896 L-608,896 L-608,904 L-624,904 L-624,896 L-632,896 L-632,888 L-640,888 L-640,880 L-648,880 L-648,864 L-656,864 L-656,856 L-664,856 L-664,840 L-672,840 L-672,832 L-680,832 L-680,816 L-688,816 L-688,808 L-696,808 L-696,792 L-704,792 L-704,784 L-712,784 L-712,768 L-720,768 L-720,760 L-728,760 L-728,744 L-736,744 L-736,736 L-744,736 L-744,720 L-752,720 L-752,712 L-760,712 L-760,696 L-768,696 L-768,688 L-776,688 L-776,672 L-784,672 L-784,664 L-792,664 L-792,648 L-800,648 L-800,640 L-808,640 L-808,624 L-816,624 L-816,616 L-824,616 L-824,600 L-832,600 L-832,592 L-840,592 L-840,576 L-848,576 L-848,568 L-856,568 L-856,536 L-848,536 L-848,528 L-840,528 L-840,520 L-832,520 L-832,512 L-816,512 L-816,504 L-808,504 L-808,496 L-800,496 L-800,488 L-792,488 L-792,480 L-784,480 L-784,472 L-776,472 L-776,464 L-768,464 L-768,456 L-760,456 L-760,448 L-744,448 L-744,440 L-736,440 L-736,432 L-728,432 L-728,424 L-720,424 L-720,416 L-712,416 L-712,408 L-704,408 L-704,400 L-696,400 L-696,392 L-688,392 L-688,384 L-672,384 L-672,376 L-664,376 L-664,368 L-656,368 L-656,360 L-648,360 L-648,352 L-640,352 L-640,344 L-632,344 L-632,336 L-624,336 L-624,328 L-616,328 L-616,320 L-608,320 L-608,312 L-600,312 L-600,304 L-592,304 L-592,296 L-576,296 L-576,288 L-568,288 L-568,280 L-560,280 L-560,272 L-552,272 L-552,264 L-544,264 L-544,256 L-536,256 L-536,248 L-528,248 L-528,240 L-520,240 L-520,232 L-512,232 L-512,224 L-504,224 L-504,216 L-496,216 L-496,208 L-488,208 L-488,200 L-472,200 L-472,192 L-464,192 L-464,184 L-456,184 L-456,176 L-448,176 L-448,168 L-440,168 L-440,160 L-432,160 L-432,152 L-424,152 L-424,144 L-416,144 L-416,136 L-400,136 L-400,128 L-392,128 L-392,120 L-384,120 L-384,112 L-368,112 L-368,104 L-344,104 L-344,96 L-312,96 L-312,88 L-288,88 L-288,80 L-256,80 L-256,72 L-232,72 L-232,64 L-200,64 L-200,56 L-168,56 L-168,48 L-144,48 L-144,40 L-112,40 L-112,32 L-80,32 L-80,24 L-56,24 L-56,16 L-24,16 L-24,8 L0,8 Z M512,16 L512,40 L504,40 L504,64 L496,64 L496,88 L488,88 L488,104 L480,104 L480,112 L472,112 L472,128 L464,128 L464,136 L456,136 L456,144 L448,144 L448,152 L432,152 L432,160 L424,160 L424,168 L416,168 L416,176 L400,176 L400,184 L384,184 L384,192 L360,192 L360,200 L336,200 L336,208 L304,208 L304,216 L208,216 L208,208 L176,208 L176,200 L152,200 L152,192 L136,192 L136,184 L120,184 L120,176 L104,176 L104,168 L96,168 L96,160 L80,160 L80,152 L72,152 L72,144 L64,144 L64,136 L56,136 L56,128 L48,128 L48,112 L40,112 L40,104 L32,104 L32,88 L24,88 L24,72 L16,72 L16,48 L8,48 L8,24 L-24,24 L-24,32 L-32,32 L-32,56 L-24,56 L-24,80 L-16,80 L-16,104 L-8,104 L-8,120 L0,120 L0,128 L8,128 L8,144 L16,144 L16,152 L24,152 L24,160 L32,160 L32,168 L40,168 L40,176 L48,176 L48,184 L56,184 L56,192 L64,192 L64,200 L72,200 L72,208 L88,208 L88,216 L104,216 L104,224 L120,224 L120,232 L136,232 L136,240 L160,240 L160,248 L200,248 L200,256 L320,256 L320,248 L352,248 L352,240 L384,240 L384,232 L400,232 L400,224 L416,224 L416,216 L432,216 L432,208 L440,208 L440,200 L456,200 L456,192 L464,192 L464,184 L472,184 L472,176 L480,176 L480,168 L488,168 L488,160 L496,160 L496,152 L504,152 L504,144 L512,144 L512,128 L520,128 L520,120 L528,120 L528,104 L536,104 L536,80 L544,80 L544,56 L552,56 L552,40 L544,40 L544,24 L520,24 L520,16 Z M24,24 L24,56 L32,56 L32,64 L40,64 L40,72 L56,72 L56,80 L40,80 L40,96 L48,96 L48,104 L56,104 L56,112 L64,112 L64,128 L72,128 L72,136 L80,136 L80,144 L96,144 L96,152 L104,152 L104,160 L112,160 L112,168 L128,168 L128,176 L144,176 L144,184 L168,184 L168,192 L200,192 L200,200 L320,200 L320,192 L352,192 L352,184 L368,184 L368,176 L392,176 L392,168 L400,168 L400,160 L416,160 L416,152 L424,152 L424,144 L432,144 L432,136 L448,136 L448,120 L456,120 L456,112 L464,112 L464,104 L472,104 L472,88 L480,88 L480,80 L472,80 L472,72 L480,72 L480,56 L488,56 L488,48 L496,48 L496,24 L488,24 L488,32 L472,32 L472,40 L456,40 L456,48 L440,48 L440,56 L416,56 L416,64 L384,64 L384,72 L352,72 L352,80 L296,80 L296,88 L248,88 L248,80 L184,80 L184,72 L144,72 L144,64 L112,64 L112,56 L88,56 L88,48 L72,48 L72,40 L56,40 L56,32 L32,32 L32,24 Z M-56,32 L-56,40 L-88,40 L-88,48 L-120,48 L-120,56 L-144,56 L-144,64 L-176,64 L-176,72 L-200,72 L-200,80 L-232,80 L-232,88 L-256,88 L-256,96 L-288,96 L-288,104 L-312,104 L-312,112 L-344,112 L-344,120 L-368,120 L-368,128 L-384,128 L-384,136 L-392,136 L-392,144 L-400,144 L-400,152 L-408,152 L-408,160 L-416,160 L-416,168 L-424,168 L-424,176 L-432,176 L-432,184 L-448,184 L-448,192 L-456,192 L-456,200 L-464,200 L-464,208 L-472,208 L-472,216 L-480,216 L-480,224 L-488,224 L-488,232 L-496,232 L-496,240 L-504,240 L-504,248 L-512,248 L-512,256 L-520,256 L-520,264 L-536,264 L-536,272 L-544,272 L-544,280 L-552,280 L-552,288 L-560,288 L-560,296 L-568,296 L-568,304 L-576,304 L-576,312 L-584,312 L-584,320 L-592,320 L-592,328 L-600,328 L-600,336 L-616,336 L-616,344 L-624,344 L-624,352 L-632,352 L-632,360 L-640,360 L-640,368 L-648,368 L-648,376 L-656,376 L-656,384 L-664,384 L-664,392 L-672,392 L-672,400 L-688,400 L-688,408 L-696,408 L-696,416 L-704,416 L-704,424 L-712,424 L-712,432 L-720,432 L-720,440 L-728,440 L-728,448 L-736,448 L-736,456 L-744,456 L-744,464 L-752,464 L-752,472 L-760,472 L-760,480 L-768,480 L-768,488 L-784,488 L-784,496 L-792,496 L-792,504 L-800,504 L-800,512 L-808,512 L-808,520 L-816,520 L-816,528 L-824,528 L-824,536 L-832,536 L-832,544 L-840,544 L-840,560 L-832,560 L-832,576 L-824,576 L-824,584 L-816,584 L-816,600 L-808,600 L-808,608 L-800,608 L-800,624 L-792,624 L-792,632 L-784,632 L-784,648 L-776,648 L-776,656 L-768,656 L-768,672 L-760,672 L-760,680 L-752,680 L-752,696 L-744,696 L-744,704 L-736,704 L-736,720 L-728,720 L-728,728 L-720,728 L-720,744 L-712,744 L-712,752 L-704,752 L-704,768 L-696,768 L-696,776 L-688,776 L-688,792 L-680,792 L-680,800 L-672,800 L-672,816 L-664,816 L-664,824 L-656,824 L-656,840 L-648,840 L-648,848 L-640,848 L-640,864 L-632,864 L-632,872 L-624,872 L-624,888 L-608,888 L-608,880 L-584,880 L-584,872 L-568,872 L-568,864 L-544,864 L-544,856 L-528,856 L-528,848 L-512,848 L-512,840 L-488,840 L-488,832 L-464,832 L-464,824 L-456,824 L-456,816 L-432,816 L-432,2128 L-440,2128 L-440,2136 L-432,2136 L-432,2152 L-440,2152 L-440,2176 L-432,2176 L-432,2192 L952,2192 L952,2184 L960,2184 L960,816 L968,816 L968,824 L992,824 L992,832 L1008,832 L1008,840 L1032,840 L1032,848 L1048,848 L1048,856 L1064,856 L1064,864 L1088,864 L1088,872 L1104,872 L1104,880 L1120,880 L1120,888 L1144,888 L1144,880 L1152,880 L1152,864 L1160,864 L1160,856 L1168,856 L1168,840 L1176,840 L1176,832 L1184,832 L1184,816 L1192,816 L1192,808 L1200,808 L1200,792 L1208,792 L1208,784 L1216,784 L1216,768 L1224,768 L1224,760 L1232,760 L1232,744 L1240,744 L1240,736 L1248,736 L1248,720 L1256,720 L1256,712 L1264,712 L1264,696 L1272,696 L1272,688 L1280,688 L1280,672 L1288,672 L1288,664 L1296,664 L1296,648 L1304,648 L1304,640 L1312,640 L1312,624 L1320,624 L1320,616 L1328,616 L1328,600 L1336,600 L1336,592 L1344,592 L1344,576 L1352,576 L1352,568 L1360,568 L1360,544 L1352,544 L1352,536 L1344,536 L1344,528 L1336,528 L1336,520 L1328,520 L1328,512 L1320,512 L1320,504 L1312,504 L1312,496 L1304,496 L1304,488 L1296,488 L1296,480 L1280,480 L1280,472 L1272,472 L1272,464 L1264,464 L1264,456 L1256,456 L1256,448 L1248,448 L1248,440 L1240,440 L1240,432 L1232,432 L1232,424 L1224,424 L1224,416 L1216,416 L1216,408 L1208,408 L1208,400 L1200,400 L1200,392 L1184,392 L1184,384 L1176,384 L1176,376 L1168,376 L1168,368 L1160,368 L1160,360 L1152,360 L1152,352 L1144,352 L1144,344 L1136,344 L1136,336 L1120,336 L1120,328 L1112,328 L1112,320 L1104,320 L1104,312 L1096,312 L1096,304 L1088,304 L1088,296 L1080,296 L1080,288 L1072,288 L1072,280 L1064,280 L1064,272 L1048,272 L1048,264 L1040,264 L1040,256 L1032,256 L1032,248 L1024,248 L1024,240 L1016,240 L1016,232 L1008,232 L1008,224 L1000,224 L1000,216 L992,216 L992,208 L984,208 L984,200 L976,200 L976,192 L960,192 L960,184 L952,184 L952,176 L944,176 L944,168 L936,168 L936,160 L928,160 L928,152 L920,152 L920,144 L912,144 L912,136 L896,136 L896,128 L888,128 L888,120 L872,120 L872,112 L840,112 L840,104 L808,104 L808,96 L784,96 L784,88 L752,88 L752,80 L720,80 L720,72 L696,72 L696,64 L664,64 L664,56 L640,56 L640,48 L608,48 L608,40 L584,40 L584,32 L568,32 L568,40 L560,40 L560,64 L552,64 L552,88 L544,88 L544,112 L536,112 L536,128 L528,128 L528,136 L520,136 L520,152 L512,152 L512,160 L504,160 L504,168 L496,168 L496,176 L488,176 L488,184 L480,184 L480,192 L472,192 L472,200 L464,200 L464,208 L448,208 L448,216 L440,216 L440,224 L424,224 L424,232 L408,232 L408,240 L392,240 L392,248 L368,248 L368,256 L344,256 L344,264 L288,264 L288,272 L232,272 L232,264 L184,264 L184,256 L152,256 L152,248 L128,248 L128,240 L112,240 L112,232 L96,232 L96,224 L80,224 L80,216 L64,216 L64,208 L56,208 L56,200 L48,200 L48,192 L40,192 L40,184 L32,184 L32,176 L24,176 L24,168 L16,168 L16,160 L8,160 L8,152 L0,152 L0,136 L-8,136 L-8,128 L-16,128 L-16,112 L-24,112 L-24,88 L-32,88 L-32,64 L-40,64 L-40,32 Z " fill="#000000" transform="translate(912,48)"/>
<path d="M0,0 L24,0 L24,8 L48,8 L48,16 L72,16 L72,24 L104,24 L104,32 L152,32 L152,40 L272,40 L272,32 L320,32 L320,40 L280,40 L280,48 L136,48 L136,40 L96,40 L96,32 L64,32 L64,24 L40,24 L40,16 L16,16 L16,8 L0,8 Z " fill="#000000" transform="translate(968,128)"/>
<path d="M0,0 L16,0 L16,8 L0,8 Z " fill="#000000" transform="translate(1360,128)"/>
<path d="M0,0 L24,0 L24,8 L0,8 Z " fill="#000000" transform="translate(1336,136)"/>
<path d="M0,0 L24,0 L24,8 L0,8 Z " fill="#000000" transform="translate(1312,144)"/>
<path d="M0,0 L24,0 L24,8 L0,8 Z " fill="#000000" transform="translate(1288,152)"/>
</svg>
